<?xml version="1.0" encoding="utf-8"?>
<!-- Generator: Adobe Illustrator 23.0.1, SVG Export Plug-In . SVG Version: 6.00 Build 0)  -->
<svg version="1.1" id="Layer_1" xmlns="http://www.w3.org/2000/svg" xmlns:xlink="http://www.w3.org/1999/xlink" x="0px" y="0px"
	 viewBox="0 0 1000 1000" style="enable-background:new 0 0 1000 1000;" xml:space="preserve">
<style type="text/css">
	.st0{fill:#231F20;}
	.st1{fill:#FEFEFE;}
	.st2{fill:#9E242E;}
	.st3{fill:#FF912E;}
	.st4{fill:#F41CB2;}
	.st5{fill:#F25511;}
</style>
<g id="g12330">
</g>
<g>
	<path class="st0" d="M939.4,474.3c14.9-5.1,31.5-8.3,46.9-3.3c8.8,3,13.6,12.4,13.5,21.4c0.2,18.4,0.4,36.8-0.3,55.1
		c-5.3,0-10.6,0-15.9,0c-0.6-2.9-1.2-5.8-1.9-8.7c-9.9,7.9-23.1,13.4-35.7,8.7c-14.4-5.7-16.1-27.2-5.3-37.2
		c10.9-10.1,26.6-10.2,40.3-13.3c-0.9-4.6-1.6-10.6-7.1-12c-11-3.3-22.1,1.7-32.6,4.7C940.5,484.6,939.9,479.5,939.4,474.3
		 M956.9,516.9c-5.1,4.1-5.4,14.1,1.3,16.7c8.1,3.1,15.9-2.5,22.3-6.8c0-6,0-11.9-0.1-17.9C972.3,510.3,963.3,511.2,956.9,516.9"/>
	<path class="st0" d="M525.7,437.6c8.9-0.6,17.8-0.6,26.7-0.4c10.6,26.8,17.3,55,28.7,81.5c9.4-27,18.1-54.3,27.4-81.3
		c8.8-0.3,17.7-0.3,26.6,0c2.6,36.7,6.4,73.4,8,110.2c-6.9,0-13.7,0-20.5,0c-2.4-26.2-3.5-52.6-6.1-78.8
		c-10.6,25.8-18,52.7-27.6,78.9c-6.4,0.3-12.9,0.2-19.3-0.1c-9.3-26.1-16.7-53-27.7-78.5c-2.2,26.1-3.3,52.4-5.7,78.5
		c-6.1,0-12.3,0-18.4,0C519.4,510.8,523.3,474.2,525.7,437.6"/>
	<path class="st0" d="M830.4,445.9c6.2-1.3,12.5-2.1,18.8-2.7c0.2,8.9,0.2,17.7,0.1,26.6c5.2,0.1,10.4,0.4,15.6,0.5
		c1,5.1,1.9,10.1,2.6,15.3c-6,0.3-12,0.5-18,0.6c0.1,13.4-0.9,27,0.5,40.3c1.9,6.5,10.4,4.7,15.6,5.9c1,5.1,1.7,10.3,2.3,15.5
		c-9.8,1-20.8,2.3-29.6-3.3c-5.8-3.8-7.6-11-7.9-17.5c-0.7-13.6,0.2-27.2-0.4-40.8c-3.6-0.4-7.2-0.7-10.7-1.1
		c0.1-4.9,0.3-9.8,0.4-14.7c3.5-0.3,6.9-0.6,10.4-1C830,461.7,830.2,453.8,830.4,445.9"/>
	<path class="st0" d="M654.7,471.8c6.6-1.3,13.3-2,20-2.4c6,17.7,11.4,35.7,17.6,53.3c6.3-17.2,11.3-34.9,16.9-52.3
		c6.4-0.4,12.8-0.6,19.2-0.5c-7.2,23.5-16.5,46.3-24.5,69.5c-4.2,10.7-6.8,22.9-15.6,31c-7.2,6.5-17.6,6.8-26.6,5.2
		c-0.9-5.1-1.7-10.2-2.5-15.3c4.4,0,8.9,0.2,13.3-0.6c6-2,11.2-9.3,8.5-15.6C672.5,520.1,663,496.2,654.7,471.8"/>
	<path class="st0" d="M741,470.1c5.4,0,10.8,0.1,16.2,0.2c0.7,3.4,1.4,6.7,2.2,10.1c8.3-6.8,18.2-13.4,29.5-11.6
		c9.8,0.4,17.7,9.3,17.9,18.9c0.5,19.9,0.2,39.8,0.1,59.7c-6.1,0.1-12.3,0.2-18.4,0.3c-1.7-18,0.3-36.2-1-54.3
		c-0.9-7.4-10.1-9.3-15.8-6.3c-4.9,2.5-11.5,5.9-11.2,12.3c-0.4,16,0.2,32.1-0.1,48.1c-6.5,0.1-13,0.1-19.5-0.1
		C741,521.6,740.9,495.8,741,470.1"/>
	<path class="st0" d="M882.2,470.1c5.5,0,11,0,16.5,0.1c0.7,4.5,1.4,9,2.2,13.5c6.8-7.1,14.3-14.5,24.7-15.3
		c1.6,6.2,2.6,12.5,2.8,18.9c-10.2,2.3-21.9,6.6-26.5,16.7c-0.9,14.5,0.2,29-0.4,43.5c-6.5,0.1-12.9,0-19.3-0.1
		C882.3,521.6,882.2,495.8,882.2,470.1"/>
	<path class="st1" d="M99.4,366.1c9.4-11.2,19.5-23.2,33.9-27.8c16.2-4.3,29.8,8.5,40,19.2c26.6,30.4,45.9,66.3,63.9,102.2
		c9.8-21.8,21.8-42.6,34.5-63c12-18.3,24.4-37.1,41.7-51c8-6.1,19.1-12,29.1-6.8c14.1,7.5,24.8,19.8,34.8,32
		c21.2,27.3,37.9,57.9,52.9,88.9c18.8,40,35,81.7,41.9,125.6c2,20.3,3.9,43.1-8.4,60.8c-9.4,13.8-27.5,18.6-43.4,15.9
		c-13.9-4.9-26-13.9-35.1-25.5c-21.5-26.7-34.4-59-46.3-90.8c-1.8-5.6-3.9-11-5.8-16.6c-1.3,5.7-2.8,11.2-4.6,16.7
		c-12.2,32.3-25.1,65.2-47.4,92c-8.9,11-20.7,19.4-34,24.1c-19.2,4-37.8-6-50.2-20.1c-24.3-26.5-37.8-60.5-50.2-93.7
		c-2.4-6.8-4.8-13.6-6.6-20.7c-1.9,7.1-4.4,14.1-6.9,21c-11.2,30.6-24,61.3-44.3,87c-11,13.2-25.5,26.2-43.5,27.1
		c-16.6,1.4-32.8-9.3-39.1-24.5c-9.1-21.1-6.5-44.9-2.4-66.8c8.6-42,24.7-82.1,43.5-120.5C62.2,421.3,78.7,392.2,99.4,366.1
		 M108.9,375.4c-20.5,26.2-36.9,55.5-51.5,85.3C39,499.2,22.5,539.3,15.5,581.6c-2.5,11.7-2.6,23.9-1.3,35.7
		c1.4,11.2,5.8,23.2,16.1,29c9.8,5.8,22.5,3.5,31.5-2.9c16.1-11.2,26.7-28.3,35.9-45.2c19.7-37.7,32.7-78.6,42.5-119.9
		c10.4,42.3,23.5,84.4,44.2,122.9c8.2,14.2,17,29,30.5,38.9c6.8,6.1,15.8,10.4,25.1,9.4c10.4-1.1,19.1-7.7,26.3-14.8
		c12.5-12.8,21.5-28.5,29.5-44.3c17-35,28.8-72.2,38-109.9c11.5,45.6,25.7,91.4,50.2,131.8c9.2,14.2,20,28.9,36.2,35.4
		c11.4,4.6,25.7,0.6,32.2-10.1c7.9-12.6,8.5-28.4,7.3-42.8c-1.6-23.4-8.5-46-15.9-68.1c-14.9-42.7-34.5-83.7-58.5-122.1
		c-11.1-17.1-22.6-34.3-38-47.8c-5.5-4.8-13.6-9.4-20.5-4.6c-13.3,8.1-22.6,21.1-31.8,33.4c-22.7,32.3-41.4,67.4-56.7,103.8
		c-0.5,0.6-1.4,1.6-1.9,2.2c-1.3-4.1-2.6-8.2-4.4-12.1c-15.7-34-33.2-67.4-55.4-97.7c-7.6-10-15.4-20.2-25.7-27.5
		c-4.4-3.1-10.2-5.9-15.5-3.2C124.3,356.3,116.5,366.2,108.9,375.4"/>
	<path class="st2" d="M108.9,375.4c7.6-9.1,15.4-19.1,26.5-24.2c5.3-2.7,11.1,0,15.5,3.2c10.3,7.4,18.1,17.6,25.7,27.5
		c22.2,30.3,39.7,63.7,55.4,97.7c1.8,3.9,3.1,8,4.4,12.1c-20.4-34.8-39.1-70.9-64.8-102.4c-7.5-8.8-15.3-18.1-26.1-22.8
		c-6.2-2.6-12.4,0.8-17.5,4.2c-18.4,15.4-31.9,35.5-44.8,55.5c-30.1,48.1-52.9,100.7-67.8,155.3c7-42.3,23.5-82.4,41.8-120.9
		C72,430.8,88.3,401.6,108.9,375.4"/>
	<path class="st2" d="M326.8,352.3c6.9-4.8,15.1-0.2,20.5,4.6c15.4,13.5,26.9,30.7,38,47.8c23.9,38.3,43.6,79.4,58.5,122.1
		c7.5,22.1,14.3,44.7,15.9,68.1c-2.6-16.3-6.7-32.3-12.3-47.8c-14.2-42.6-33.7-83.3-57.5-121.3c-10.4-16.3-21.4-32.3-34.8-46.3
		c-5.4-5.3-11.1-10.9-18.4-13.3c-5.7-1.8-11,2.2-15.6,5.1c-12.3,9.7-22,22.3-31.2,34.9c-16.3,23-30.7,47.3-43.9,72.3
		c-2.1,4-4.8,7.7-7.8,11.1c15.3-36.4,34-71.5,56.7-103.8C304.3,373.4,313.5,360.4,326.8,352.3"/>
	<path class="st3" d="M128.1,370.7c5-3.4,11.3-6.8,17.5-4.2c10.8,4.7,18.6,14,26.1,22.8c25.6,31.4,44.4,67.5,64.8,102.4
		c-12.8,36.3-28,73-28.9,112c-0.6,12.6,2.7,24.9,7.3,36.4c-13.5-9.8-22.2-24.6-30.5-38.9c-20.7-38.5-33.9-80.6-44.2-122.9
		C132.6,443,125.7,407,128.1,370.7"/>
	<path class="st4" d="M321.2,371.2c4.6-2.8,9.8-6.8,15.6-5.1c7.3,2.4,13,8,18.4,13.3c13.4,14,24.4,30,34.8,46.3
		c23.8,38,43.3,78.8,57.5,121.3c5.6,15.5,9.7,31.5,12.3,47.8c1.2,14.4,0.6,30.2-7.3,42.8c-6.5,10.6-20.8,14.7-32.2,10.1
		c-16.2-6.6-27-21.3-36.2-35.4c-24.5-40.5-38.8-86.2-50.2-131.8C326,444.6,318.8,408,321.2,371.2"/>
	<path class="st4" d="M83.3,426.2c12.9-20,26.4-40.2,44.8-55.5c-2.4,36.3,4.6,72.3,12.1,107.7c-9.8,41.3-22.8,82.2-42.5,119.9
		c-9.2,16.9-19.8,34-35.9,45.2c-9,6.3-21.7,8.7-31.5,2.9c-10.3-5.8-14.7-17.8-16.1-29c-1.3-11.9-1.2-24,1.3-35.7
		C30.5,526.9,53.2,474.3,83.3,426.2"/>
	<path class="st5" d="M290,406.1c9.1-12.6,18.8-25.2,31.2-34.9c-2.3,36.8,4.8,73.4,12.6,109.2c-9.2,37.7-21,75-38,109.9
		c-8,15.9-17,31.5-29.5,44.3c-7.2,7.1-16,13.7-26.3,14.8c-9.3,1-18.3-3.3-25.1-9.4c-4.6-11.6-8-23.8-7.3-36.4
		c0.9-39.1,16.1-75.7,28.9-112c0.5-0.6,1.4-1.6,1.9-2.2c3-3.4,5.7-7.1,7.8-11.1C259.3,453.4,273.7,429.1,290,406.1"/>
</g>
</svg>
